# xmcd CD database file
#
# Track frame offsets:
#	150
#	8827
#	17747
#	28317
#	43060
#	55902
#	68150
#	81890
#	93880
#	106140
#	117330
#	132195
#	145497
#	156580
#	166292
#	178672
#	191992
#
# Disc length: 2693 seconds
#
# Revision: 0
# Processed by: cddbd v1.5.1PL0 Copyright (c) Steve Scherf et al.
# Submitted via: CDex 1.51
#
DISCID=ee0a8311
DTITLE=The Beatles - The FAB Hits Vol.3 1964-1965
DYEAR=1993
DGENRE=Rock
TTITLE0=I'll Cry Instead
TTITLE1=I'm Happy Just To Dance With You
TTITLE2=I Feel Fine
TTITLE3=She's A Woman
TTITLE4=Eight Days A Week
TTITLE5=I Don't Want To Spoil The Party
TTITLE6=Honey Don't
TTITLE7=I'm A Loser
TTITLE8=Mr. Moonlight
TTITLE9=Everybody's Trying To Be My Baby
TTITLE10=Ticket To Ride
TTITLE11=Yes It Is
TTITLE12=Help
TTITLE13=Yesterday
TTITLE14=Act Naturally
TTITLE15=Day Tripper
TTITLE16=We Can Work It Out
EXTD=YEAR: 1993
EXTT0=
EXTT1=
EXTT2=
EXTT3=
EXTT4=
EXTT5=
EXTT6=
EXTT7=
EXTT8=
EXTT9=
EXTT10=
EXTT11=
EXTT12=
EXTT13=
EXTT14=
EXTT15=
EXTT16=
PLAYORDER=
